{"title":"Sarbjit (2016) 1080p Blu-ray x264 AAC 5.1 Hindi ESub -DDR","uid":15539335,"size":2250373484,"categoryP":"video","categoryS":"hd___movies","magnet":"?xt=urn:btih:63cf3af620975f95b567cb089f2e9474d2098008&amp;dn=Sarbjit+%282016%29+1080p+Blu-ray+x264+AAC+5.1+Hindi+ESub+-DDR&amp;tr=udp%3A%2F%2Ftracker.leechers-paradise.org%3A6969&amp;tr=udp%3A%2F%2Fzer0day.ch%3A1337&amp;tr=udp%3A%2F%2Fopen.demonii.com%3A1337&amp;tr=udp%3A%2F%2Ftracker.coppersurfer.tk%3A6969&amp;tr=udp%3A%2F%2Fexodus.desync.com%3A6969","seeders":12,"leechers":7,"uploader":"SaM","files":3,"time":1470910608,"description":"\n** SARBJIT **\r\n\r\n** 2016 **\r\n** Tiny 720p / Blu-Ray / x264 / AAC 5.1 **\r\n\r\n** English Subtitle(s) **\r\n \nhttp://extraimago.com/image/wndq \nhttp://extraimago.com/image/wndS \nhttp://extraimago.com/image/wndO \nhttp://extraimago.com/image/wndE \nhttp://extraimago.com/image/wnd1 \nhttp://extraimago.com/image/wndc \nhttp://extraimago.com/image/wnd7 \nhttp://extraimago.com/image/wnds \nhttp://extraimago.com/image/wndn \nhttp://extraimago.com/image/wndj \nhttp://extraimago.com/image/wndT\r\n\r\n[ Info ]\r\nSource : DDR Blu-ray BD50\r\nFormat : Matroska\r\nFile size : 2.07 GiB\r\nDuration : 2h 11mn\r\nOverall bit rate : 2 242 Kbps\r\n\r\nVideo\r\nFormat : AVC\r\nFormat/Info : Advanced Video Codec\r\nFormat profile :   \r\nFormat settings, CABAC : Yes\r\nFormat settings, ReFrames : 5 frames\r\nCodec ID : V_MPEG4/ISO/AVC\r\nDuration : 2h 11mn\r\nBit rate : 2 044 Kbps\r\nWidth : 1 920 pixels\r\nHeight : 800 pixels\r\nDisplay aspect ratio : 2.40:1\r\nFrame rate mode : Constant\r\nFrame rate : 24.000 fps\r\ncolor space : YUV\r\nChroma subsampling : 4:2:0\r\nBit depth : 8 bits\r\nScan type : Progressive\r\nBits/(Pixel*Frame) : 0.055\r\nStream size : 1.88 GiB (91%)\r\nDefault : Yes\r\nForced : No\r\ncolor range : Limited\r\ncolor primaries : BT.709\r\n\r\nAudio\r\nFormat : AAC\r\nFormat/Info : Advanced Audio Codec\r\nFormat profile : LC\r\nCodec ID : A_AAC\r\nDuration : 2h 11mn\r\nBit rate : 192 Kbps\r\nChannel(s) : 6 channels\r\nChannel positions : Front: L C R, Side: L R, LFE\r\nSampling rate : 48.0 KHz\r\nFrame rate : 46.875 fps (1024 spf)\r\nCompression mode : Lossy\r\nDelay relative to video : 19ms\r\nStream size : 181 MiB (9%)\r\nLanguage : Hindi\r\nDefault : Yes\r\nForced : No\r\n\r\nText\r\nFormat : VobSub\r\nMuxing mode : zlib\r\nCodec ID : S_VOBSUB\r\nCodec ID/Info : Picture based subtitle format used on DVDs\r\nDuration : 2h 4mn\r\nBit rate : 2 798 bps\r\nCount of elements : 1579\r\nStream size : 2.49 MiB (0%)\r\nLanguage : English\r\nDefault : Yes\r\nForced : No\r\n\r\nChapters = YES","torrent":{"xt":"urn:btih:63cf3af620975f95b567cb089f2e9474d2098008","amp;dn":"Sarbjit+%282016%29+1080p+Blu-ray+x264+AAC+5.1+Hindi+ESub+-DDR","amp;tr":["udp%3A%2F%2Ftracker.leechers-paradise.org%3A6969","udp%3A%2F%2Fzer0day.ch%3A1337","udp%3A%2F%2Fopen.demonii.com%3A1337","udp%3A%2F%2Ftracker.coppersurfer.tk%3A6969","udp%3A%2F%2Fexodus.desync.com%3A6969"],"infoHash":"63cf3af620975f95b567cb089f2e9474d2098008","infoHashBuffer":{"type":"Buffer","data":[99,207,58,246,32,151,95,149,181,103,203,8,159,46,148,116,210,9,128,8]},"announce":[],"urlList":[]}}